<svg width="100" height="100" viewBox="0 0 100 100" fill="none" xmlns="http://www.w3.org/2000/svg">
<path d="M12.3438 48.7109C10.3516 48.7109 8.71094 50.3516 8.71094 52.3438C8.71094 54.3359 10.3516 55.9766 12.3438 55.9766C14.3359 55.9766 15.9766 54.375 15.9766 52.3438C15.9766 50.3516 14.375 48.7109 12.3438 48.7109Z" fill="black"/>
<path d="M62.8516 18.3984C67.1875 18.3984 70.7422 14.8828 70.7422 10.5078C70.7422 6.13281 67.1875 2.61719 62.8516 2.61719C58.4766 2.61719 54.9219 6.17188 54.9219 10.5078C54.9219 14.8828 58.4766 18.3984 62.8516 18.3984Z" fill="black"/>
<path d="M96.7578 88.75L83.9453 73.5938C83.9453 73.5938 79.9219 50.1953 79.9219 50.1563C79.9219 50.1172 79.3359 47.5 79.3359 47.5C79.375 47.5391 77.7344 40.1172 76.4844 34.3359C78.4766 35.5078 80.3125 36.5234 80.3906 36.5625C80.4688 36.7969 87.1875 49.5313 87.1875 49.5313C87.6953 50.4688 88.5547 51.1719 89.5312 51.4844C90.5859 51.7969 91.6406 51.7188 92.5781 51.2109C93.5156 50.7422 94.2188 49.8828 94.5312 48.8281C94.8828 47.8125 94.7656 46.7188 94.2578 45.7813L86.9141 31.7578C86.9141 31.7578 86.6406 31.25 86.25 30.8594C85.7031 30.3125 84.5703 29.6875 84.5703 29.6875L70.3125 21.5625C68.5156 20.6641 66.4844 20.3516 64.4922 20.7813C63.6719 20.9375 62.8906 21.25 62.0312 21.7578C61.9531 21.7969 58.7891 23.1641 56.9531 27.4609L49.6094 42.2266C49.6094 42.2266 38.4375 44.4141 38.0469 44.4531C37.9688 44.4922 37.8516 44.4922 37.7734 44.5313L27.3438 37.1875C25 35.5469 24.7266 30.6641 24.6875 30.4688C24.4141 27.1094 22.4609 23.9063 19.375 21.7188C16.5625 19.7266 13.2031 18.9063 10.1172 19.4141C7.69531 19.8047 5.66406 21.0938 4.33594 22.9297C3.32031 24.3359 2.77344 26.0547 2.77344 27.8906C2.77344 27.9297 2.92969 29.4922 2.92969 29.4922C3.47656 32.6172 5.35156 35.5078 8.16406 37.5C10.9766 39.4922 14.3359 40.3516 17.4219 39.8047L18.1641 39.6484C18.2422 39.6094 22.8516 38.1641 25.1172 39.7266C25.1172 39.7656 32.9297 45.2344 35 46.7188C34.7656 47.0703 34.4141 47.8125 34.4141 48.5938C34.4141 48.8281 34.4531 49.0625 34.4922 49.3359C34.8828 51.5234 37.0312 52.9688 39.1797 52.5L53.0078 49.8047C53.0078 49.8047 54.1797 49.4531 54.6875 49.0625C55.3516 48.5938 55.8203 47.6563 55.8203 47.6563L59.4531 40.3125C59.4531 40.3125 61.9531 52.1484 61.9922 52.3828C61.7187 52.6563 50.625 64.4141 50.625 64.4141L50.4297 64.6484C49.3359 65.625 48.75 66.9531 48.75 68.3203V93.2031C48.75 95.8594 50.9375 98.0078 53.5547 98.0078C56.1719 98.0078 58.3594 95.8594 58.3594 93.2031C58.3594 93.2031 58.3594 72.7344 58.3594 72.4219C59.375 71.3672 67.8516 62.4219 70.1172 60.0391C70.3516 61.4453 72.5391 74.0625 72.5391 74.0625C72.7344 75.1563 73.2812 76.1719 74.0625 76.9922C74.0625 77.0313 89.2969 95 89.2969 95C90.1562 95.9766 91.2891 96.5625 92.5781 96.6797C93.8672 96.7578 95.0781 96.3672 96.0938 95.5469C97.1875 94.6094 97.7734 93.2422 97.7734 91.875C97.8906 90.7422 97.5391 89.6484 96.7578 88.75ZM22.375 36.125C21.5156 37.2969 18.4766 37.7266 16.875 38C14.6094 38.3906 11.0469 37.4609 8.9375 35.9375C6.78906 34.4141 5.14062 31.3047 4.75 29C4.625 24.875 4.875 25.1875 7 22.4375C9.5 19.6875 14.7109 20.4922 18.5 23.1875C22.25 25.8828 24.4844 33.1562 22.375 36.125Z" fill="black"/>
</svg>
