<svg width="800" height="800" viewBox="0 0 800 800" fill="none" xmlns="http://www.w3.org/2000/svg">
<path d="M166.667 325.915V540C166.667 596.007 166.667 624.01 177.566 645.4C187.153 664.217 202.451 679.513 221.268 689.1C242.659 700 270.661 700 326.667 700H473.333C529.34 700 557.34 700 578.733 689.1C597.55 679.513 612.847 664.217 622.433 645.4C633.333 624.01 633.333 596.007 633.333 540V166.667M700 400L518.893 198.8C477.703 153.041 457.11 130.161 432.853 121.715C411.553 114.296 388.367 114.298 367.063 121.72C342.81 130.17 322.22 153.052 281.038 198.817L100 400M466.667 700V500H333.333V700" stroke="black" stroke-width="50" stroke-linecap="round" stroke-linejoin="round"/>
</svg>
