<svg width="800" height="800" viewBox="0 0 800 800" fill="none" xmlns="http://www.w3.org/2000/svg">
<path fill-rule="evenodd" clip-rule="evenodd" d="M272 400C272 435.347 243.346 464 208 464C172.654 464 144 435.347 144 400C144 364.653 172.654 336 208 336C224.974 336 241.252 342.742 253.255 354.746C265.257 366.749 272 383.027 272 400Z" stroke="black" stroke-width="50" stroke-linecap="round" stroke-linejoin="round"/>
<path fill-rule="evenodd" clip-rule="evenodd" d="M464 400C464 435.347 435.347 464 400 464C364.653 464 336 435.347 336 400C336 364.653 364.653 336 400 336C435.347 336 464 364.653 464 400Z" stroke="black" stroke-width="50" stroke-linecap="round" stroke-linejoin="round"/>
<path fill-rule="evenodd" clip-rule="evenodd" d="M656 400C656 435.347 627.347 464 592 464C556.653 464 528 435.347 528 400C528 364.653 556.653 336 592 336C627.347 336 656 364.653 656 400Z" stroke="black" stroke-width="50" stroke-linecap="round" stroke-linejoin="round"/>
</svg>
