<svg width="800" height="800" viewBox="0 0 800 800" fill="none" xmlns="http://www.w3.org/2000/svg">
<path d="M66.6667 400C66.6667 274.292 66.6668 211.438 105.719 172.386C144.772 133.333 207.625 133.333 333.333 133.333H466.667C592.373 133.333 655.23 133.333 694.28 172.386C733.333 211.438 733.333 274.292 733.333 400V466.667C733.333 592.373 733.333 655.23 694.28 694.28C655.23 733.333 592.373 733.333 466.667 733.333H333.333C207.625 733.333 144.772 733.333 105.719 694.28C66.6668 655.23 66.6667 592.373 66.6667 466.667V400Z" stroke="#1C274C" stroke-width="50"/>
<path d="M233.333 133.333V83.3333" stroke="#1C274C" stroke-width="50" stroke-linecap="round"/>
<path d="M566.667 133.333V83.3333" stroke="#1C274C" stroke-width="50" stroke-linecap="round"/>
<path d="M300 483.333L350 433.333V566.667" stroke="#1C274C" stroke-width="50" stroke-linecap="round" stroke-linejoin="round"/>
<path d="M433.333 533.333V466.667C433.333 448.257 448.257 433.333 466.667 433.333C485.077 433.333 500 448.257 500 466.667V533.333C500 551.743 485.077 566.667 466.667 566.667C448.257 566.667 433.333 551.743 433.333 533.333Z" stroke="#1C274C" stroke-width="50" stroke-linecap="round"/>
<path d="M83.3333 300H716.667" stroke="#1C274C" stroke-width="50" stroke-linecap="round"/>
</svg>
