<svg xmlns="http://www.w3.org/2000/svg" width="200" height="200" fill="none" viewBox="0 0 200 200"><g clip-path="url(#a)"><path fill="#C6E12B" d="M25.221 98.629c.815 18.385 8.793 34.567 22.486 45.582 14.21 11.432 32.857 16.146 51.136 12.918 10.85-1.911 21.65-7.508 31.225-16.179a116.7 116.7 0 0 0 15.743-17.468c13.557-18.493 16.985-42.136 8.946-61.703-9.296-22.622-29.711-36.768-54.643-37.868-17.493 1.128-32.15-3.375-42.343-13.082a3.6 3.6 0 0 1-.782-1.118C36.957 19.264 20.625 35.3 10.657 55.096c.36.175.714.383 1.01.686C21.705 65.996 26.394 80.807 25.222 98.63"/><path fill="#C6E12B" d="M100 0a99.7 99.7 0 0 0-36.032 6.718c8.7 7.553 21.043 11.043 35.868 10.05l.196-.014.193.007c27.882 1.153 50.739 16.968 61.143 42.3 8.978 21.853 5.228 48.153-9.789 68.643a124 124 0 0 1-16.711 18.539c-10.575 9.578-22.604 15.775-34.779 17.921a72.3 72.3 0 0 1-12.571 1.1c-16.082 0-31.732-5.385-44.286-15.485-15.368-12.365-24.3-30.493-25.153-51.043l-.008-.197.011-.196c1.032-15.182-2.646-27.718-10.55-36.447A99.7 99.7 0 0 0 0 100c0 55.229 44.771 100 100 100s100-44.771 100-100S155.229 0 100 0"/><path fill="#fff" d="m18.082 98.343-.01.196.007.197c.85 20.55 9.782 38.678 25.15 51.043 12.557 10.1 28.203 15.485 44.285 15.485 4.175 0 8.382-.364 12.572-1.1 12.175-2.146 24.203-8.339 34.778-17.921a124 124 0 0 0 16.711-18.539c15.018-20.49 18.768-46.79 9.789-68.643-10.4-25.332-33.26-41.143-61.143-42.3l-.192-.007-.197.014c-14.825.996-27.168-2.497-35.868-10.05-2.368.914-4.7 1.9-6.978 2.99.185.406.439.792.782 1.117 10.193 9.707 24.85 14.21 42.343 13.082 24.928 1.1 45.346 15.247 54.643 37.868 8.039 19.568 4.61 43.211-8.947 61.704a116.4 116.4 0 0 1-15.743 17.467c-9.578 8.675-20.375 14.268-31.225 16.179-18.278 3.225-36.928-1.486-51.135-12.918-13.693-11.014-21.672-27.196-22.486-45.582C26.386 80.807 21.7 65.993 11.66 55.779c-.297-.304-.65-.511-1.011-.686a100 100 0 0 0-3.121 6.8c7.91 8.736 11.585 21.268 10.553 36.45"/></g><defs><clipPath id="a"><path fill="#fff" d="M0 0h200v200H0z"/></clipPath></defs></svg>